{"glyphs":{"0":{"ha":1476,"x_min":0,"x_max":1389,"o":"m 868 347 q 990 397 939 347 q 1042 521 1042 449 l 1042 1215 q 990 1337 1042 1286 q 868 1389 939 1389 l 521 1389 q 397 1337 449 1389 q 347 1215 347 1286 l 347 521 q 397 397 347 449 q 521 347 449 347 l 868 347 m 347 0 q 100 102 202 0 q 0 347 0 202 l 0 1389 q 102 1634 0 1533 q 347 1736 202 1736 l 1042 1736 q 1287 1633 1185 1736 q 1389 1389 1389 1533 l 1389 347 q 1286 100 1389 202 q 1042 0 1185 0 l 347 0 z "},"1":{"ha":1476,"x_min":0,"x_max":1389,"o":"m 174 0 q 50 50 102 0 q 0 174 0 102 q 50 296 0 244 q 174 347 102 347 l 521 347 l 521 1215 q 469 1337 521 1286 q 347 1389 418 1389 l 174 1389 q 50 1439 102 1389 q 0 1563 0 1491 q 50 1685 0 1633 q 174 1736 102 1736 l 694 1736 q 817 1634 766 1736 q 868 1389 868 1533 l 868 347 l 1215 347 q 1337 296 1286 347 q 1389 174 1389 244 q 1337 50 1389 102 q 1215 0 1286 0 l 174 0 z "},"2":{"ha":1476,"x_min":0,"x_max":1389,"o":"m 347 0 q 102 100 202 0 q 0 347 0 202 l 0 694 q 100 939 0 838 q 347 1042 202 1042 l 868 1042 q 990 1092 939 1042 q 1042 1215 1042 1143 q 990 1337 1042 1286 q 868 1389 939 1389 l 174 1389 q 50 1439 102 1389 q 0 1563 0 1491 q 50 1685 0 1633 q 174 1736 102 1736 l 1042 1736 q 1286 1634 1185 1736 q 1389 1389 1389 1533 l 1389 1042 q 1287 796 1389 897 q 1042 694 1185 694 l 521 694 q 397 643 449 694 q 347 521 347 591 q 397 397 347 449 q 521 347 449 347 l 1215 347 q 1337 296 1286 347 q 1389 174 1389 244 q 1337 50 1389 102 q 1215 0 1286 0 l 347 0 z "},"3":{"ha":1476,"x_min":0,"x_max":1389,"o":"m 174 0 q 50 50 102 0 q 0 174 0 102 q 50 296 0 244 q 174 347 102 347 l 868 347 q 990 397 939 347 q 1042 521 1042 449 q 990 643 1042 591 q 868 694 939 694 l 521 694 q 397 745 449 694 q 347 868 347 796 q 397 990 347 939 q 521 1042 449 1042 l 868 1042 q 990 1092 939 1042 q 1042 1215 1042 1143 q 990 1337 1042 1286 q 868 1389 939 1389 l 174 1389 q 50 1439 102 1389 q 0 1563 0 1491 q 50 1685 0 1633 q 174 1736 102 1736 l 1042 1736 q 1286 1634 1185 1736 q 1389 1389 1389 1533 l 1389 1042 q 1337 918 1389 970 q 1215 868 1286 868 q 1337 817 1286 868 q 1389 694 1389 765 l 1389 347 q 1286 100 1389 202 q 1042 0 1185 0 l 174 0 z "},"4":{"ha":1476,"x_min":0,"x_max":1389,"o":"m 1215 0 q 1092 50 1143 0 q 1042 174 1042 102 l 1042 694 l 347 694 q 100 796 202 694 q 0 1042 0 897 l 0 1563 q 50 1685 0 1633 q 174 1736 102 1736 q 296 1685 244 1736 q 347 1563 347 1633 l 347 1215 q 397 1092 347 1143 q 521 1042 449 1042 l 1042 1042 l 1042 1563 q 1092 1685 1042 1633 q 1215 1736 1143 1736 q 1337 1685 1286 1736 q 1389 1563 1389 1633 l 1389 174 q 1337 50 1389 102 q 1215 0 1286 0 l 1215 0 z "},"5":{"ha":1476,"x_min":0,"x_max":1389,"o":"m 174 0 q 50 50 102 0 q 0 174 0 102 q 50 296 0 244 q 174 347 102 347 l 868 347 q 990 397 939 347 q 1042 521 1042 449 q 990 643 1042 591 q 868 694 939 694 l 347 694 q 100 796 202 694 q 0 1042 0 897 l 0 1389 q 102 1634 0 1533 q 347 1736 202 1736 l 1215 1736 q 1337 1685 1286 1736 q 1389 1563 1389 1633 q 1337 1439 1389 1491 q 1215 1389 1286 1389 l 521 1389 q 397 1337 449 1389 q 347 1215 347 1286 q 397 1092 347 1143 q 521 1042 449 1042 l 1042 1042 q 1287 939 1185 1042 q 1389 694 1389 838 l 1389 347 q 1286 100 1389 202 q 1042 0 1185 0 l 174 0 z "},"6":{"ha":1476,"x_min":0,"x_max":1389,"o":"m 868 347 q 990 397 939 347 q 1042 521 1042 449 q 990 643 1042 591 q 868 694 939 694 l 521 694 q 397 643 449 694 q 347 521 347 591 q 397 397 347 449 q 521 347 449 347 l 868 347 m 347 0 q 100 102 202 0 q 0 347 0 202 l 0 1389 q 102 1634 0 1533 q 347 1736 202 1736 l 1215 1736 q 1337 1685 1286 1736 q 1389 1563 1389 1633 q 1337 1439 1389 1491 q 1215 1389 1286 1389 l 521 1389 q 397 1337 449 1389 q 347 1215 347 1286 q 397 1092 347 1143 q 521 1042 449 1042 l 1042 1042 q 1287 939 1185 1042 q 1389 694 1389 838 l 1389 347 q 1286 100 1389 202 q 1042 0 1185 0 l 347 0 z "},"7":{"ha":1476,"x_min":0,"x_max":1389,"o":"m 521 0 q 397 50 449 0 q 347 174 347 102 l 347 347 q 449 593 347 491 q 694 694 549 694 q 796 940 694 838 q 1042 1042 897 1042 l 1042 1389 l 174 1389 q 50 1439 102 1389 q 0 1563 0 1491 q 50 1685 0 1633 q 174 1736 102 1736 l 1042 1736 q 1287 1633 1185 1736 q 1389 1389 1389 1533 l 1389 1042 q 1286 795 1389 897 q 1042 694 1185 694 q 939 448 1042 549 q 694 347 838 347 l 694 174 q 643 50 694 102 q 521 0 591 0 l 521 0 z "},"8":{"ha":1476,"x_min":0,"x_max":1389,"o":"m 868 347 q 990 397 939 347 q 1042 521 1042 449 q 990 643 1042 591 q 868 694 939 694 l 521 694 q 397 643 449 694 q 347 521 347 591 q 397 397 347 449 q 521 347 449 347 l 868 347 m 868 1042 q 990 1092 939 1042 q 1042 1215 1042 1143 q 990 1337 1042 1286 q 868 1389 939 1389 l 521 1389 q 397 1337 449 1389 q 347 1215 347 1286 q 397 1092 347 1143 q 521 1042 449 1042 l 868 1042 m 347 0 q 102 100 202 0 q 0 347 0 202 l 0 694 q 50 817 0 765 q 174 868 102 868 q 50 918 102 868 q 0 1042 0 970 l 0 1389 q 102 1634 0 1533 q 347 1736 202 1736 l 1042 1736 q 1287 1633 1185 1736 q 1389 1389 1389 1533 l 1389 1042 q 1337 918 1389 970 q 1215 868 1286 868 q 1337 817 1286 868 q 1389 694 1389 765 l 1389 347 q 1286 100 1389 202 q 1042 0 1185 0 l 347 0 z "},"9":{"ha":1476,"x_min":0,"x_max":1389,"o":"m 868 1042 q 990 1092 939 1042 q 1042 1215 1042 1143 q 990 1337 1042 1286 q 868 1389 939 1389 l 521 1389 q 397 1337 449 1389 q 347 1215 347 1286 q 397 1092 347 1143 q 521 1042 449 1042 l 868 1042 m 174 0 q 50 50 102 0 q 0 174 0 102 q 50 296 0 244 q 174 347 102 347 l 868 347 q 990 397 939 347 q 1042 521 1042 449 q 990 643 1042 591 q 868 694 939 694 l 347 694 q 100 796 202 694 q 0 1042 0 897 l 0 1389 q 102 1634 0 1533 q 347 1736 202 1736 l 1042 1736 q 1287 1633 1185 1736 q 1389 1389 1389 1533 l 1389 347 q 1286 100 1389 202 q 1042 0 1185 0 l 174 0 z "}," ":{"ha":1476,"x_min":0,"x_max":0,"o":""},"!":{"ha":1476,"x_min":521,"x_max":868,"o":"m 694 0 q 571 50 623 0 q 521 174 521 102 q 571 296 521 244 q 694 347 623 347 q 817 296 765 347 q 868 174 868 244 q 817 50 868 102 q 694 0 765 0 l 694 0 m 694 694 q 571 745 621 694 q 521 868 521 795 l 521 1563 q 571 1685 521 1634 q 694 1736 621 1736 q 817 1685 766 1736 q 868 1563 868 1634 l 868 868 q 817 745 868 795 q 694 694 766 694 l 694 694 z "},"\"":{"ha":1476,"x_min":0,"x_max":1389,"o":"m 347 1042 q 100 1143 202 1042 q 0 1389 0 1244 l 0 1736 q 102 1982 0 1880 q 347 2083 202 2083 q 593 1980 491 2083 q 694 1736 694 1880 q 796 1982 694 1880 q 1042 2083 897 2083 q 1287 1980 1185 2083 q 1389 1736 1389 1880 l 1389 1389 q 1286 1142 1389 1244 q 1042 1042 1185 1042 q 795 1143 897 1042 q 694 1389 694 1244 q 591 1142 694 1244 q 347 1042 491 1042 l 347 1042 z "},"$":{"ha":1476,"x_min":0,"x_max":1389,"o":"m 868 347 q 990 397 939 347 q 1042 521 1042 449 q 990 643 1042 591 q 868 694 939 694 l 868 347 l 868 347 m 521 1042 l 521 1389 q 397 1337 449 1389 q 347 1215 347 1286 q 397 1092 347 1143 q 521 1042 449 1042 l 521 1042 m 174 0 q 50 50 102 0 q 0 174 0 102 q 50 296 0 244 q 174 347 102 347 l 521 347 l 521 694 l 347 694 q 100 796 202 694 q 0 1042 0 897 l 0 1389 q 102 1634 0 1533 q 347 1736 202 1736 l 1215 1736 q 1337 1685 1286 1736 q 1389 1563 1389 1633 q 1337 1439 1389 1491 q 1215 1389 1286 1389 l 868 1389 l 868 1042 l 1042 1042 q 1287 939 1185 1042 q 1389 694 1389 838 l 1389 347 q 1286 100 1389 202 q 1042 0 1185 0 l 174 0 z "},"'":{"ha":1476,"x_min":347,"x_max":1042,"o":"m 694 1042 q 448 1143 549 1042 q 347 1389 347 1244 l 347 1736 q 449 1982 347 1880 q 694 2083 549 2083 q 940 1980 838 2083 q 1042 1736 1042 1880 l 1042 1389 q 939 1142 1042 1244 q 694 1042 838 1042 l 694 1042 z "},",":{"ha":1476,"x_min":347,"x_max":1042,"o":"m 521 -347 q 397 -296 449 -347 q 347 -174 347 -244 q 397 -50 347 -102 q 521 0 449 0 l 694 0 q 448 102 549 0 q 347 347 347 202 q 449 593 347 491 q 694 694 549 694 q 940 591 838 694 q 1042 347 1042 491 l 1042 0 q 939 -245 1042 -144 q 694 -347 838 -347 l 521 -347 z "},".":{"ha":1476,"x_min":347,"x_max":1042,"o":"m 694 0 q 448 102 549 0 q 347 347 347 202 q 449 593 347 491 q 694 694 549 694 q 940 591 838 694 q 1042 347 1042 491 q 939 100 1042 202 q 694 0 838 0 l 694 0 z "},"?":{"ha":1476,"x_min":0,"x_max":1389,"o":"m 521 0 q 397 50 449 0 q 347 174 347 102 q 397 296 347 244 q 521 347 449 347 q 643 296 591 347 q 694 174 694 244 q 643 50 694 102 q 521 0 591 0 l 521 0 m 521 694 q 397 745 449 694 q 347 868 347 796 q 397 990 347 939 q 521 1042 449 1042 l 1042 1042 l 1042 1389 l 174 1389 q 50 1439 102 1389 q 0 1563 0 1491 q 50 1685 0 1633 q 174 1736 102 1736 l 1042 1736 q 1287 1633 1185 1736 q 1389 1389 1389 1533 l 1389 1042 q 1286 795 1389 897 q 1042 694 1185 694 l 521 694 z "},"@":{"ha":1476,"x_min":0,"x_max":1389,"o":"m 347 0 q 100 102 202 0 q 0 347 0 202 l 0 1389 q 102 1634 0 1533 q 347 1736 202 1736 l 1042 1736 q 1287 1633 1185 1736 q 1389 1389 1389 1533 l 1389 694 q 1286 448 1389 549 q 1042 347 1185 347 q 795 449 897 347 q 694 694 694 549 q 796 940 694 838 q 1042 1042 897 1042 l 1042 1215 q 990 1337 1042 1286 q 868 1389 939 1389 l 521 1389 q 397 1337 449 1389 q 347 1215 347 1286 l 347 521 q 397 397 347 449 q 521 347 449 347 q 643 296 591 347 q 694 174 694 244 q 643 50 694 102 q 521 0 591 0 l 347 0 z "},"A":{"ha":1476,"x_min":0,"x_max":1389,"o":"m 1042 1042 l 1042 1215 q 990 1337 1042 1286 q 868 1389 939 1389 l 521 1389 q 397 1337 449 1389 q 347 1215 347 1286 l 347 1042 l 1042 1042 m 174 0 q 50 50 102 0 q 0 174 0 102 l 0 1389 q 102 1634 0 1533 q 347 1736 202 1736 l 1042 1736 q 1287 1633 1185 1736 q 1389 1389 1389 1533 l 1389 174 q 1337 50 1389 102 q 1215 0 1286 0 q 1092 50 1143 0 q 1042 174 1042 102 l 1042 694 l 347 694 l 347 174 q 296 50 347 102 q 174 0 244 0 l 174 0 z "},"B":{"ha":1476,"x_min":0,"x_max":1389,"o":"m 868 347 q 990 397 939 347 q 1042 521 1042 449 q 990 643 1042 591 q 868 694 939 694 l 694 694 l 694 347 l 868 347 m 868 1042 q 990 1092 939 1042 q 1042 1215 1042 1143 q 990 1337 1042 1286 q 868 1389 939 1389 l 694 1389 l 694 1042 l 868 1042 m 174 0 q 50 50 102 0 q 0 174 0 102 q 50 296 0 244 q 174 347 102 347 q 296 397 244 347 q 347 521 347 449 l 347 1215 q 296 1337 347 1286 q 174 1389 244 1389 q 50 1439 102 1389 q 0 1563 0 1491 q 50 1685 0 1633 q 174 1736 102 1736 l 1042 1736 q 1287 1633 1185 1736 q 1389 1389 1389 1533 l 1389 1042 q 1337 918 1389 970 q 1215 868 1286 868 q 1337 817 1286 868 q 1389 694 1389 765 l 1389 347 q 1286 100 1389 202 q 1042 0 1185 0 l 174 0 z "},"C":{"ha":1476,"x_min":0,"x_max":1389,"o":"m 347 0 q 100 102 202 0 q 0 347 0 202 l 0 1389 q 102 1634 0 1533 q 347 1736 202 1736 l 1042 1736 q 1287 1633 1185 1736 q 1389 1389 1389 1533 l 1389 1215 q 1337 1092 1389 1143 q 1215 1042 1286 1042 q 1092 1092 1143 1042 q 1042 1215 1042 1143 q 990 1337 1042 1286 q 868 1389 939 1389 l 521 1389 q 397 1337 449 1389 q 347 1215 347 1286 l 347 521 q 397 397 347 449 q 521 347 449 347 l 868 347 q 990 397 939 347 q 1042 521 1042 449 q 1092 643 1042 591 q 1215 694 1143 694 q 1337 643 1286 694 q 1389 521 1389 591 l 1389 347 q 1286 100 1389 202 q 1042 0 1185 0 l 347 0 z "},"D":{"ha":1476,"x_min":0,"x_max":1389,"o":"m 868 347 q 990 397 939 347 q 1042 521 1042 449 l 1042 1215 q 990 1337 1042 1286 q 868 1389 939 1389 l 694 1389 l 694 347 l 868 347 m 174 0 q 50 50 102 0 q 0 174 0 102 q 50 296 0 244 q 174 347 102 347 q 296 397 244 347 q 347 521 347 449 l 347 1215 q 296 1337 347 1286 q 174 1389 244 1389 q 50 1439 102 1389 q 0 1563 0 1491 q 50 1685 0 1633 q 174 1736 102 1736 l 1042 1736 q 1287 1633 1185 1736 q 1389 1389 1389 1533 l 1389 347 q 1286 100 1389 202 q 1042 0 1185 0 l 174 0 z "},"E":{"ha":1476,"x_min":0,"x_max":1389,"o":"m 347 0 q 100 102 202 0 q 0 347 0 202 l 0 1389 q 102 1634 0 1533 q 347 1736 202 1736 l 1215 1736 q 1337 1685 1286 1736 q 1389 1563 1389 1633 q 1337 1439 1389 1491 q 1215 1389 1286 1389 l 521 1389 q 397 1337 449 1389 q 347 1215 347 1286 l 347 1042 l 868 1042 q 990 990 939 1042 q 1042 868 1042 939 q 990 745 1042 796 q 868 694 939 694 l 347 694 l 347 521 q 397 397 347 449 q 521 347 449 347 l 1215 347 q 1337 296 1286 347 q 1389 174 1389 244 q 1337 50 1389 102 q 1215 0 1286 0 l 347 0 z "},"F":{"ha":1476,"x_min":0,"x_max":1389,"o":"m 174 0 q 50 50 102 0 q 0 174 0 102 l 0 1389 q 102 1634 0 1533 q 347 1736 202 1736 l 1215 1736 q 1337 1685 1286 1736 q 1389 1563 1389 1633 q 1337 1439 1389 1491 q 1215 1389 1286 1389 l 521 1389 q 397 1337 449 1389 q 347 1215 347 1286 l 347 1042 l 868 1042 q 990 990 939 1042 q 1042 868 1042 939 q 990 745 1042 796 q 868 694 939 694 l 347 694 l 347 174 q 296 50 347 102 q 174 0 244 0 l 174 0 z "},"G":{"ha":1476,"x_min":0,"x_max":1389,"o":"m 347 0 q 100 102 202 0 q 0 347 0 202 l 0 1389 q 102 1634 0 1533 q 347 1736 202 1736 l 1215 1736 q 1337 1685 1286 1736 q 1389 1563 1389 1633 q 1337 1439 1389 1491 q 1215 1389 1286 1389 l 521 1389 q 397 1337 449 1389 q 347 1215 347 1286 l 347 521 q 397 397 347 449 q 521 347 449 347 l 868 347 q 990 397 939 347 q 1042 521 1042 449 q 990 643 1042 591 q 868 694 939 694 q 745 745 796 694 q 694 868 694 796 q 745 990 694 939 q 868 1042 796 1042 l 1042 1042 q 1287 939 1185 1042 q 1389 694 1389 838 l 1389 347 q 1286 100 1389 202 q 1042 0 1185 0 l 347 0 z "},"H":{"ha":1476,"x_min":0,"x_max":1389,"o":"m 174 0 q 50 50 102 0 q 0 174 0 102 l 0 1563 q 50 1685 0 1633 q 174 1736 102 1736 q 296 1685 244 1736 q 347 1563 347 1633 l 347 1042 l 1042 1042 l 1042 1563 q 1092 1685 1042 1633 q 1215 1736 1143 1736 q 1337 1685 1286 1736 q 1389 1563 1389 1633 l 1389 174 q 1337 50 1389 102 q 1215 0 1286 0 q 1092 50 1143 0 q 1042 174 1042 102 l 1042 694 l 347 694 l 347 174 q 296 50 347 102 q 174 0 244 0 l 174 0 z "},"I":{"ha":1476,"x_min":0,"x_max":1389,"o":"m 174 0 q 50 50 102 0 q 0 174 0 102 q 50 296 0 244 q 174 347 102 347 l 521 347 l 521 1389 l 174 1389 q 50 1439 102 1389 q 0 1563 0 1491 q 50 1685 0 1633 q 174 1736 102 1736 l 1215 1736 q 1337 1685 1286 1736 q 1389 1563 1389 1633 q 1337 1439 1389 1491 q 1215 1389 1286 1389 l 868 1389 l 868 347 l 1215 347 q 1337 296 1286 347 q 1389 174 1389 244 q 1337 50 1389 102 q 1215 0 1286 0 l 174 0 z "},"J":{"ha":1476,"x_min":0,"x_max":1389,"o":"m 174 0 q 50 50 102 0 q 0 174 0 102 q 50 296 0 244 q 174 347 102 347 l 347 347 q 469 397 418 347 q 521 521 521 449 l 521 1389 l 174 1389 q 50 1439 102 1389 q 0 1563 0 1491 q 50 1685 0 1633 q 174 1736 102 1736 l 1215 1736 q 1337 1685 1286 1736 q 1389 1563 1389 1633 q 1337 1439 1389 1491 q 1215 1389 1286 1389 l 868 1389 l 868 347 q 817 100 868 202 q 694 0 766 0 l 174 0 z "},"K":{"ha":1476,"x_min":0,"x_max":1389,"o":"m 174 0 q 50 50 102 0 q 0 174 0 102 l 0 1563 q 50 1685 0 1633 q 174 1736 102 1736 q 296 1685 244 1736 q 347 1563 347 1633 l 347 1042 l 694 1042 l 694 1389 q 796 1634 694 1533 q 1042 1736 897 1736 l 1215 1736 q 1337 1685 1286 1736 q 1389 1563 1389 1633 q 1337 1439 1389 1491 q 1215 1389 1286 1389 q 1092 1337 1143 1389 q 1042 1215 1042 1286 l 1042 1042 q 1287 939 1185 1042 q 1389 694 1389 838 l 1389 174 q 1337 50 1389 102 q 1215 0 1286 0 q 1092 50 1143 0 q 1042 174 1042 102 l 1042 521 q 990 643 1042 591 q 868 694 939 694 l 347 694 l 347 174 q 296 50 347 102 q 174 0 244 0 l 174 0 z "},"L":{"ha":1476,"x_min":0,"x_max":1389,"o":"m 347 0 q 100 102 202 0 q 0 347 0 202 l 0 1563 q 50 1685 0 1633 q 174 1736 102 1736 q 296 1685 244 1736 q 347 1563 347 1633 l 347 521 q 397 397 347 449 q 521 347 449 347 l 1215 347 q 1337 296 1286 347 q 1389 174 1389 244 q 1337 50 1389 102 q 1215 0 1286 0 l 347 0 z "},"M":{"ha":1476,"x_min":0,"x_max":1389,"o":"m 174 0 q 50 50 102 0 q 0 174 0 102 l 0 1389 q 102 1634 0 1533 q 347 1736 202 1736 q 593 1633 491 1736 q 694 1389 694 1533 q 796 1634 694 1533 q 1042 1736 897 1736 q 1287 1633 1185 1736 q 1389 1389 1389 1533 l 1389 174 q 1337 50 1389 102 q 1215 0 1286 0 q 1092 50 1143 0 q 1042 174 1042 102 l 1042 1215 q 990 1337 1042 1286 q 868 1389 939 1389 l 868 174 q 817 50 868 100 q 694 0 766 0 q 571 50 621 0 q 521 174 521 100 l 521 1389 q 397 1337 449 1389 q 347 1215 347 1286 l 347 174 q 296 50 347 102 q 174 0 244 0 l 174 0 z "},"N":{"ha":1476,"x_min":0,"x_max":1389,"o":"m 174 0 q 50 50 102 0 q 0 174 0 102 l 0 1389 q 102 1634 0 1533 q 347 1736 202 1736 l 694 1736 q 817 1633 766 1736 q 868 1389 868 1533 l 868 347 l 1042 347 l 1042 1563 q 1092 1685 1042 1633 q 1215 1736 1143 1736 q 1337 1685 1286 1736 q 1389 1563 1389 1633 l 1389 347 q 1286 100 1389 202 q 1042 0 1185 0 l 694 0 q 571 102 621 0 q 521 347 521 202 l 521 1389 l 347 1389 l 347 174 q 296 50 347 102 q 174 0 244 0 l 174 0 z "},"O":{"ha":1476,"x_min":0,"x_max":1389,"o":"m 868 347 q 990 397 939 347 q 1042 521 1042 449 l 1042 1215 q 990 1337 1042 1286 q 868 1389 939 1389 l 521 1389 q 397 1337 449 1389 q 347 1215 347 1286 l 347 521 q 397 397 347 449 q 521 347 449 347 l 868 347 m 347 0 q 100 102 202 0 q 0 347 0 202 l 0 1389 q 102 1634 0 1533 q 347 1736 202 1736 l 1042 1736 q 1287 1633 1185 1736 q 1389 1389 1389 1533 l 1389 347 q 1286 100 1389 202 q 1042 0 1185 0 l 347 0 z "},"P":{"ha":1476,"x_min":0,"x_max":1389,"o":"m 868 1042 q 990 1092 939 1042 q 1042 1215 1042 1143 q 990 1337 1042 1286 q 868 1389 939 1389 l 521 1389 q 397 1337 449 1389 q 347 1215 347 1286 q 397 1092 347 1143 q 521 1042 449 1042 l 868 1042 m 174 0 q 50 50 102 0 q 0 174 0 102 l 0 1389 q 102 1634 0 1533 q 347 1736 202 1736 l 1042 1736 q 1287 1633 1185 1736 q 1389 1389 1389 1533 l 1389 1042 q 1286 795 1389 897 q 1042 694 1185 694 l 347 694 l 347 174 q 296 50 347 102 q 174 0 244 0 l 174 0 z "},"Q":{"ha":1476,"x_min":0,"x_max":1389,"o":"m 1042 694 l 1042 1215 q 990 1337 1042 1286 q 868 1389 939 1389 l 521 1389 q 397 1337 449 1389 q 347 1215 347 1286 l 347 694 l 521 694 l 521 868 q 571 990 521 940 q 694 1042 621 1042 q 817 990 766 1042 q 868 868 868 940 l 868 694 l 1042 694 m 694 0 q 571 50 621 0 q 521 174 521 100 l 521 347 l 347 347 q 100 449 202 347 q 0 694 0 549 l 0 1389 q 102 1634 0 1533 q 347 1736 202 1736 l 1042 1736 q 1287 1633 1185 1736 q 1389 1389 1389 1533 l 1389 694 q 1286 448 1389 549 q 1042 347 1185 347 l 868 347 l 868 174 q 817 50 868 100 q 694 0 766 0 l 694 0 z "},"R":{"ha":1476,"x_min":0,"x_max":1389,"o":"m 868 1042 q 990 1092 939 1042 q 1042 1215 1042 1143 q 990 1337 1042 1286 q 868 1389 939 1389 l 521 1389 q 397 1337 449 1389 q 347 1215 347 1286 q 397 1092 347 1143 q 521 1042 449 1042 l 868 1042 m 174 0 q 50 50 102 0 q 0 174 0 102 l 0 1389 q 102 1634 0 1533 q 347 1736 202 1736 l 1042 1736 q 1287 1633 1185 1736 q 1389 1389 1389 1533 l 1389 1042 q 1286 795 1389 897 q 1042 694 1185 694 l 1042 521 q 1092 397 1042 449 q 1215 347 1143 347 q 1337 296 1286 347 q 1389 174 1389 244 q 1337 50 1389 102 q 1215 0 1286 0 l 1042 0 q 795 102 897 0 q 694 347 694 202 l 694 694 l 347 694 l 347 174 q 296 50 347 102 q 174 0 244 0 l 174 0 z "},"S":{"ha":1476,"x_min":0,"x_max":1389,"o":"m 174 0 q 50 50 102 0 q 0 174 0 102 q 50 296 0 244 q 174 347 102 347 l 868 347 q 990 397 939 347 q 1042 521 1042 449 q 990 643 1042 591 q 868 694 939 694 l 347 694 q 100 796 202 694 q 0 1042 0 897 l 0 1389 q 102 1634 0 1533 q 347 1736 202 1736 l 1215 1736 q 1337 1685 1286 1736 q 1389 1563 1389 1633 q 1337 1439 1389 1491 q 1215 1389 1286 1389 l 521 1389 q 397 1337 449 1389 q 347 1215 347 1286 q 397 1092 347 1143 q 521 1042 449 1042 l 1042 1042 q 1287 939 1185 1042 q 1389 694 1389 838 l 1389 347 q 1286 100 1389 202 q 1042 0 1185 0 l 174 0 z "},"T":{"ha":1476,"x_min":0,"x_max":1389,"o":"m 694 0 q 571 50 621 0 q 521 174 521 100 l 521 1389 l 174 1389 q 50 1439 102 1389 q 0 1563 0 1491 q 50 1685 0 1633 q 174 1736 102 1736 l 1215 1736 q 1337 1685 1286 1736 q 1389 1563 1389 1633 q 1337 1439 1389 1491 q 1215 1389 1286 1389 l 868 1389 l 868 174 q 817 50 868 100 q 694 0 766 0 l 694 0 z "},"U":{"ha":1476,"x_min":0,"x_max":1389,"o":"m 347 0 q 100 102 202 0 q 0 347 0 202 l 0 1563 q 50 1685 0 1633 q 174 1736 102 1736 q 296 1685 244 1736 q 347 1563 347 1633 l 347 521 q 397 397 347 449 q 521 347 449 347 l 868 347 q 990 397 939 347 q 1042 521 1042 449 l 1042 1563 q 1092 1685 1042 1633 q 1215 1736 1143 1736 q 1337 1685 1286 1736 q 1389 1563 1389 1633 l 1389 347 q 1286 100 1389 202 q 1042 0 1185 0 l 347 0 z "},"V":{"ha":1476,"x_min":0,"x_max":1389,"o":"m 694 0 q 448 102 549 0 q 347 347 347 202 q 100 449 202 347 q 0 694 0 549 l 0 1563 q 50 1685 0 1633 q 174 1736 102 1736 q 296 1685 244 1736 q 347 1563 347 1633 l 347 694 q 593 591 491 694 q 694 347 694 491 q 796 593 694 491 q 1042 694 897 694 l 1042 1563 q 1092 1685 1042 1633 q 1215 1736 1143 1736 q 1337 1685 1286 1736 q 1389 1563 1389 1633 l 1389 694 q 1286 448 1389 549 q 1042 347 1185 347 q 939 100 1042 202 q 694 0 838 0 l 694 0 z "},"W":{"ha":1476,"x_min":0,"x_max":1389,"o":"m 347 0 q 102 100 202 0 q 0 347 0 202 l 0 1563 q 50 1685 0 1633 q 174 1736 102 1736 q 296 1685 244 1736 q 347 1563 347 1633 l 347 521 q 397 397 347 449 q 521 347 449 347 l 521 1563 q 571 1685 521 1634 q 694 1736 621 1736 q 817 1685 766 1736 q 868 1563 868 1634 l 868 347 q 990 397 939 347 q 1042 521 1042 449 l 1042 1563 q 1092 1685 1042 1633 q 1215 1736 1143 1736 q 1337 1685 1286 1736 q 1389 1563 1389 1633 l 1389 347 q 1287 102 1389 202 q 1042 0 1185 0 q 796 100 897 0 q 694 347 694 202 q 593 102 694 202 q 347 0 491 0 l 347 0 z "},"X":{"ha":1476,"x_min":0,"x_max":1389,"o":"m 174 0 q 50 50 102 0 q 0 174 0 102 l 0 347 q 102 593 0 491 q 347 694 202 694 q 469 745 418 694 q 521 868 521 796 l 521 1042 l 347 1042 q 100 1143 202 1042 q 0 1389 0 1244 l 0 1563 q 50 1685 0 1633 q 174 1736 102 1736 q 296 1685 244 1736 q 347 1563 347 1633 l 347 1389 q 593 1286 491 1389 q 694 1042 694 1185 q 796 1287 694 1185 q 1042 1389 897 1389 l 1042 1563 q 1092 1685 1042 1633 q 1215 1736 1143 1736 q 1337 1685 1286 1736 q 1389 1563 1389 1633 l 1389 1389 q 1286 1142 1389 1244 q 1042 1042 1185 1042 l 868 1042 l 868 868 q 918 745 868 796 q 1042 694 970 694 q 1287 591 1185 694 q 1389 347 1389 491 l 1389 174 q 1337 50 1389 102 q 1215 0 1286 0 q 1092 50 1143 0 q 1042 174 1042 102 l 1042 347 q 795 449 897 347 q 694 694 694 549 q 591 448 694 549 q 347 347 491 347 l 347 174 q 296 50 347 102 q 174 0 244 0 l 174 0 z "},"Y":{"ha":1476,"x_min":0,"x_max":1389,"o":"m 694 0 q 571 50 621 0 q 521 174 521 100 l 521 694 l 347 694 q 100 796 202 694 q 0 1042 0 897 l 0 1563 q 50 1685 0 1633 q 174 1736 102 1736 q 296 1685 244 1736 q 347 1563 347 1633 l 347 1215 q 397 1092 347 1143 q 521 1042 449 1042 l 868 1042 q 990 1092 939 1042 q 1042 1215 1042 1143 l 1042 1563 q 1092 1685 1042 1633 q 1215 1736 1143 1736 q 1337 1685 1286 1736 q 1389 1563 1389 1633 l 1389 1042 q 1286 795 1389 897 q 1042 694 1185 694 l 868 694 l 868 174 q 817 50 868 100 q 694 0 766 0 l 694 0 z "},"Z":{"ha":1476,"x_min":0,"x_max":1389,"o":"m 347 0 q 102 100 202 0 q 0 347 0 202 l 0 694 q 100 939 0 838 q 347 1042 202 1042 l 868 1042 q 990 1092 939 1042 q 1042 1215 1042 1143 q 990 1337 1042 1286 q 868 1389 939 1389 l 174 1389 q 50 1439 102 1389 q 0 1563 0 1491 q 50 1685 0 1633 q 174 1736 102 1736 l 1042 1736 q 1286 1634 1185 1736 q 1389 1389 1389 1533 l 1389 1042 q 1287 796 1389 897 q 1042 694 1185 694 l 521 694 q 397 643 449 694 q 347 521 347 591 q 397 397 347 449 q 521 347 449 347 l 1215 347 q 1337 296 1286 347 q 1389 174 1389 244 q 1337 50 1389 102 q 1215 0 1286 0 l 347 0 z "},"_":{"ha":1476,"x_min":0,"x_max":1389,"o":"m 174 -347 q 50 -296 102 -347 q 0 -174 0 -244 q 50 -50 0 -102 q 174 0 102 0 l 1215 0 q 1337 -50 1286 0 q 1389 -174 1389 -102 q 1337 -296 1389 -244 q 1215 -347 1286 -347 l 174 -347 z "},"a":{"ha":1476,"x_min":0,"x_max":1389,"o":"m 1042 1042 l 1042 1215 q 990 1337 1042 1286 q 868 1389 939 1389 l 521 1389 q 397 1337 449 1389 q 347 1215 347 1286 l 347 1042 l 1042 1042 m 174 0 q 50 50 102 0 q 0 174 0 102 l 0 1389 q 102 1634 0 1533 q 347 1736 202 1736 l 1042 1736 q 1287 1633 1185 1736 q 1389 1389 1389 1533 l 1389 174 q 1337 50 1389 102 q 1215 0 1286 0 q 1092 50 1143 0 q 1042 174 1042 102 l 1042 694 l 347 694 l 347 174 q 296 50 347 102 q 174 0 244 0 l 174 0 z "},"b":{"ha":1476,"x_min":0,"x_max":1389,"o":"m 868 347 q 990 397 939 347 q 1042 521 1042 449 q 990 643 1042 591 q 868 694 939 694 l 694 694 l 694 347 l 868 347 m 868 1042 q 990 1092 939 1042 q 1042 1215 1042 1143 q 990 1337 1042 1286 q 868 1389 939 1389 l 694 1389 l 694 1042 l 868 1042 m 174 0 q 50 50 102 0 q 0 174 0 102 q 50 296 0 244 q 174 347 102 347 q 296 397 244 347 q 347 521 347 449 l 347 1215 q 296 1337 347 1286 q 174 1389 244 1389 q 50 1439 102 1389 q 0 1563 0 1491 q 50 1685 0 1633 q 174 1736 102 1736 l 1042 1736 q 1287 1633 1185 1736 q 1389 1389 1389 1533 l 1389 1042 q 1337 918 1389 970 q 1215 868 1286 868 q 1337 817 1286 868 q 1389 694 1389 765 l 1389 347 q 1286 100 1389 202 q 1042 0 1185 0 l 174 0 z "},"c":{"ha":1476,"x_min":0,"x_max":1389,"o":"m 347 0 q 100 102 202 0 q 0 347 0 202 l 0 1389 q 102 1634 0 1533 q 347 1736 202 1736 l 1042 1736 q 1287 1633 1185 1736 q 1389 1389 1389 1533 l 1389 1215 q 1337 1092 1389 1143 q 1215 1042 1286 1042 q 1092 1092 1143 1042 q 1042 1215 1042 1143 q 990 1337 1042 1286 q 868 1389 939 1389 l 521 1389 q 397 1337 449 1389 q 347 1215 347 1286 l 347 521 q 397 397 347 449 q 521 347 449 347 l 868 347 q 990 397 939 347 q 1042 521 1042 449 q 1092 643 1042 591 q 1215 694 1143 694 q 1337 643 1286 694 q 1389 521 1389 591 l 1389 347 q 1286 100 1389 202 q 1042 0 1185 0 l 347 0 z "},"d":{"ha":1476,"x_min":0,"x_max":1389,"o":"m 868 347 q 990 397 939 347 q 1042 521 1042 449 l 1042 1215 q 990 1337 1042 1286 q 868 1389 939 1389 l 694 1389 l 694 347 l 868 347 m 174 0 q 50 50 102 0 q 0 174 0 102 q 50 296 0 244 q 174 347 102 347 q 296 397 244 347 q 347 521 347 449 l 347 1215 q 296 1337 347 1286 q 174 1389 244 1389 q 50 1439 102 1389 q 0 1563 0 1491 q 50 1685 0 1633 q 174 1736 102 1736 l 1042 1736 q 1287 1633 1185 1736 q 1389 1389 1389 1533 l 1389 347 q 1286 100 1389 202 q 1042 0 1185 0 l 174 0 z "},"e":{"ha":1476,"x_min":0,"x_max":1389,"o":"m 347 0 q 100 102 202 0 q 0 347 0 202 l 0 1389 q 102 1634 0 1533 q 347 1736 202 1736 l 1215 1736 q 1337 1685 1286 1736 q 1389 1563 1389 1633 q 1337 1439 1389 1491 q 1215 1389 1286 1389 l 521 1389 q 397 1337 449 1389 q 347 1215 347 1286 l 347 1042 l 868 1042 q 990 990 939 1042 q 1042 868 1042 939 q 990 745 1042 796 q 868 694 939 694 l 347 694 l 347 521 q 397 397 347 449 q 521 347 449 347 l 1215 347 q 1337 296 1286 347 q 1389 174 1389 244 q 1337 50 1389 102 q 1215 0 1286 0 l 347 0 z "},"f":{"ha":1476,"x_min":0,"x_max":1389,"o":"m 174 0 q 50 50 102 0 q 0 174 0 102 l 0 1389 q 102 1634 0 1533 q 347 1736 202 1736 l 1215 1736 q 1337 1685 1286 1736 q 1389 1563 1389 1633 q 1337 1439 1389 1491 q 1215 1389 1286 1389 l 521 1389 q 397 1337 449 1389 q 347 1215 347 1286 l 347 1042 l 868 1042 q 990 990 939 1042 q 1042 868 1042 939 q 990 745 1042 796 q 868 694 939 694 l 347 694 l 347 174 q 296 50 347 102 q 174 0 244 0 l 174 0 z "},"g":{"ha":1476,"x_min":0,"x_max":1389,"o":"m 347 0 q 100 102 202 0 q 0 347 0 202 l 0 1389 q 102 1634 0 1533 q 347 1736 202 1736 l 1215 1736 q 1337 1685 1286 1736 q 1389 1563 1389 1633 q 1337 1439 1389 1491 q 1215 1389 1286 1389 l 521 1389 q 397 1337 449 1389 q 347 1215 347 1286 l 347 521 q 397 397 347 449 q 521 347 449 347 l 868 347 q 990 397 939 347 q 1042 521 1042 449 q 990 643 1042 591 q 868 694 939 694 q 745 745 796 694 q 694 868 694 796 q 745 990 694 939 q 868 1042 796 1042 l 1042 1042 q 1287 939 1185 1042 q 1389 694 1389 838 l 1389 347 q 1286 100 1389 202 q 1042 0 1185 0 l 347 0 z "},"h":{"ha":1476,"x_min":0,"x_max":1389,"o":"m 174 0 q 50 50 102 0 q 0 174 0 102 l 0 1563 q 50 1685 0 1633 q 174 1736 102 1736 q 296 1685 244 1736 q 347 1563 347 1633 l 347 1042 l 1042 1042 l 1042 1563 q 1092 1685 1042 1633 q 1215 1736 1143 1736 q 1337 1685 1286 1736 q 1389 1563 1389 1633 l 1389 174 q 1337 50 1389 102 q 1215 0 1286 0 q 1092 50 1143 0 q 1042 174 1042 102 l 1042 694 l 347 694 l 347 174 q 296 50 347 102 q 174 0 244 0 l 174 0 z "},"i":{"ha":1476,"x_min":0,"x_max":1389,"o":"m 174 0 q 50 50 102 0 q 0 174 0 102 q 50 296 0 244 q 174 347 102 347 l 521 347 l 521 1389 l 174 1389 q 50 1439 102 1389 q 0 1563 0 1491 q 50 1685 0 1633 q 174 1736 102 1736 l 1215 1736 q 1337 1685 1286 1736 q 1389 1563 1389 1633 q 1337 1439 1389 1491 q 1215 1389 1286 1389 l 868 1389 l 868 347 l 1215 347 q 1337 296 1286 347 q 1389 174 1389 244 q 1337 50 1389 102 q 1215 0 1286 0 l 174 0 z "},"j":{"ha":1476,"x_min":0,"x_max":1389,"o":"m 174 0 q 50 50 102 0 q 0 174 0 102 q 50 296 0 244 q 174 347 102 347 l 347 347 q 469 397 418 347 q 521 521 521 449 l 521 1389 l 174 1389 q 50 1439 102 1389 q 0 1563 0 1491 q 50 1685 0 1633 q 174 1736 102 1736 l 1215 1736 q 1337 1685 1286 1736 q 1389 1563 1389 1633 q 1337 1439 1389 1491 q 1215 1389 1286 1389 l 868 1389 l 868 347 q 817 100 868 202 q 694 0 766 0 l 174 0 z "},"k":{"ha":1476,"x_min":0,"x_max":1389,"o":"m 174 0 q 50 50 102 0 q 0 174 0 102 l 0 1563 q 50 1685 0 1633 q 174 1736 102 1736 q 296 1685 244 1736 q 347 1563 347 1633 l 347 1042 l 694 1042 l 694 1389 q 796 1634 694 1533 q 1042 1736 897 1736 l 1215 1736 q 1337 1685 1286 1736 q 1389 1563 1389 1633 q 1337 1439 1389 1491 q 1215 1389 1286 1389 q 1092 1337 1143 1389 q 1042 1215 1042 1286 l 1042 1042 q 1287 939 1185 1042 q 1389 694 1389 838 l 1389 174 q 1337 50 1389 102 q 1215 0 1286 0 q 1092 50 1143 0 q 1042 174 1042 102 l 1042 521 q 990 643 1042 591 q 868 694 939 694 l 347 694 l 347 174 q 296 50 347 102 q 174 0 244 0 l 174 0 z "},"l":{"ha":1476,"x_min":0,"x_max":1389,"o":"m 347 0 q 100 102 202 0 q 0 347 0 202 l 0 1563 q 50 1685 0 1633 q 174 1736 102 1736 q 296 1685 244 1736 q 347 1563 347 1633 l 347 521 q 397 397 347 449 q 521 347 449 347 l 1215 347 q 1337 296 1286 347 q 1389 174 1389 244 q 1337 50 1389 102 q 1215 0 1286 0 l 347 0 z "},"m":{"ha":1476,"x_min":0,"x_max":1389,"o":"m 174 0 q 50 50 102 0 q 0 174 0 102 l 0 1389 q 102 1634 0 1533 q 347 1736 202 1736 q 593 1633 491 1736 q 694 1389 694 1533 q 796 1634 694 1533 q 1042 1736 897 1736 q 1287 1633 1185 1736 q 1389 1389 1389 1533 l 1389 174 q 1337 50 1389 102 q 1215 0 1286 0 q 1092 50 1143 0 q 1042 174 1042 102 l 1042 1215 q 990 1337 1042 1286 q 868 1389 939 1389 l 868 174 q 817 50 868 100 q 694 0 766 0 q 571 50 621 0 q 521 174 521 100 l 521 1389 q 397 1337 449 1389 q 347 1215 347 1286 l 347 174 q 296 50 347 102 q 174 0 244 0 l 174 0 z "},"n":{"ha":1476,"x_min":0,"x_max":1389,"o":"m 174 0 q 50 50 102 0 q 0 174 0 102 l 0 1389 q 102 1634 0 1533 q 347 1736 202 1736 l 694 1736 q 817 1633 766 1736 q 868 1389 868 1533 l 868 347 l 1042 347 l 1042 1563 q 1092 1685 1042 1633 q 1215 1736 1143 1736 q 1337 1685 1286 1736 q 1389 1563 1389 1633 l 1389 347 q 1286 100 1389 202 q 1042 0 1185 0 l 694 0 q 571 102 621 0 q 521 347 521 202 l 521 1389 l 347 1389 l 347 174 q 296 50 347 102 q 174 0 244 0 l 174 0 z "},"o":{"ha":1476,"x_min":0,"x_max":1389,"o":"m 868 347 q 990 397 939 347 q 1042 521 1042 449 l 1042 1215 q 990 1337 1042 1286 q 868 1389 939 1389 l 521 1389 q 397 1337 449 1389 q 347 1215 347 1286 l 347 521 q 397 397 347 449 q 521 347 449 347 l 868 347 m 347 0 q 100 102 202 0 q 0 347 0 202 l 0 1389 q 102 1634 0 1533 q 347 1736 202 1736 l 1042 1736 q 1287 1633 1185 1736 q 1389 1389 1389 1533 l 1389 347 q 1286 100 1389 202 q 1042 0 1185 0 l 347 0 z "},"p":{"ha":1476,"x_min":0,"x_max":1389,"o":"m 868 1042 q 990 1092 939 1042 q 1042 1215 1042 1143 q 990 1337 1042 1286 q 868 1389 939 1389 l 521 1389 q 397 1337 449 1389 q 347 1215 347 1286 q 397 1092 347 1143 q 521 1042 449 1042 l 868 1042 m 174 0 q 50 50 102 0 q 0 174 0 102 l 0 1389 q 102 1634 0 1533 q 347 1736 202 1736 l 1042 1736 q 1287 1633 1185 1736 q 1389 1389 1389 1533 l 1389 1042 q 1286 795 1389 897 q 1042 694 1185 694 l 347 694 l 347 174 q 296 50 347 102 q 174 0 244 0 l 174 0 z "},"q":{"ha":1476,"x_min":0,"x_max":1389,"o":"m 1042 694 l 1042 1215 q 990 1337 1042 1286 q 868 1389 939 1389 l 521 1389 q 397 1337 449 1389 q 347 1215 347 1286 l 347 694 l 521 694 l 521 868 q 571 990 521 940 q 694 1042 621 1042 q 817 990 766 1042 q 868 868 868 940 l 868 694 l 1042 694 m 694 0 q 571 50 621 0 q 521 174 521 100 l 521 347 l 347 347 q 100 449 202 347 q 0 694 0 549 l 0 1389 q 102 1634 0 1533 q 347 1736 202 1736 l 1042 1736 q 1287 1633 1185 1736 q 1389 1389 1389 1533 l 1389 694 q 1286 448 1389 549 q 1042 347 1185 347 l 868 347 l 868 174 q 817 50 868 100 q 694 0 766 0 l 694 0 z "},"r":{"ha":1476,"x_min":0,"x_max":1389,"o":"m 868 1042 q 990 1092 939 1042 q 1042 1215 1042 1143 q 990 1337 1042 1286 q 868 1389 939 1389 l 521 1389 q 397 1337 449 1389 q 347 1215 347 1286 q 397 1092 347 1143 q 521 1042 449 1042 l 868 1042 m 174 0 q 50 50 102 0 q 0 174 0 102 l 0 1389 q 102 1634 0 1533 q 347 1736 202 1736 l 1042 1736 q 1287 1633 1185 1736 q 1389 1389 1389 1533 l 1389 1042 q 1286 795 1389 897 q 1042 694 1185 694 l 1042 521 q 1092 397 1042 449 q 1215 347 1143 347 q 1337 296 1286 347 q 1389 174 1389 244 q 1337 50 1389 102 q 1215 0 1286 0 l 1042 0 q 795 102 897 0 q 694 347 694 202 l 694 694 l 347 694 l 347 174 q 296 50 347 102 q 174 0 244 0 l 174 0 z "},"s":{"ha":1476,"x_min":0,"x_max":1389,"o":"m 174 0 q 50 50 102 0 q 0 174 0 102 q 50 296 0 244 q 174 347 102 347 l 868 347 q 990 397 939 347 q 1042 521 1042 449 q 990 643 1042 591 q 868 694 939 694 l 347 694 q 100 796 202 694 q 0 1042 0 897 l 0 1389 q 102 1634 0 1533 q 347 1736 202 1736 l 1215 1736 q 1337 1685 1286 1736 q 1389 1563 1389 1633 q 1337 1439 1389 1491 q 1215 1389 1286 1389 l 521 1389 q 397 1337 449 1389 q 347 1215 347 1286 q 397 1092 347 1143 q 521 1042 449 1042 l 1042 1042 q 1287 939 1185 1042 q 1389 694 1389 838 l 1389 347 q 1286 100 1389 202 q 1042 0 1185 0 l 174 0 z "},"t":{"ha":1476,"x_min":0,"x_max":1389,"o":"m 694 0 q 571 50 621 0 q 521 174 521 100 l 521 1389 l 174 1389 q 50 1439 102 1389 q 0 1563 0 1491 q 50 1685 0 1633 q 174 1736 102 1736 l 1215 1736 q 1337 1685 1286 1736 q 1389 1563 1389 1633 q 1337 1439 1389 1491 q 1215 1389 1286 1389 l 868 1389 l 868 174 q 817 50 868 100 q 694 0 766 0 l 694 0 z "},"u":{"ha":1476,"x_min":0,"x_max":1389,"o":"m 347 0 q 100 102 202 0 q 0 347 0 202 l 0 1563 q 50 1685 0 1633 q 174 1736 102 1736 q 296 1685 244 1736 q 347 1563 347 1633 l 347 521 q 397 397 347 449 q 521 347 449 347 l 868 347 q 990 397 939 347 q 1042 521 1042 449 l 1042 1563 q 1092 1685 1042 1633 q 1215 1736 1143 1736 q 1337 1685 1286 1736 q 1389 1563 1389 1633 l 1389 347 q 1286 100 1389 202 q 1042 0 1185 0 l 347 0 z "},"v":{"ha":1476,"x_min":0,"x_max":1389,"o":"m 694 0 q 448 102 549 0 q 347 347 347 202 q 100 449 202 347 q 0 694 0 549 l 0 1563 q 50 1685 0 1633 q 174 1736 102 1736 q 296 1685 244 1736 q 347 1563 347 1633 l 347 694 q 593 591 491 694 q 694 347 694 491 q 796 593 694 491 q 1042 694 897 694 l 1042 1563 q 1092 1685 1042 1633 q 1215 1736 1143 1736 q 1337 1685 1286 1736 q 1389 1563 1389 1633 l 1389 694 q 1286 448 1389 549 q 1042 347 1185 347 q 939 100 1042 202 q 694 0 838 0 l 694 0 z "},"w":{"ha":1476,"x_min":0,"x_max":1389,"o":"m 347 0 q 102 100 202 0 q 0 347 0 202 l 0 1563 q 50 1685 0 1633 q 174 1736 102 1736 q 296 1685 244 1736 q 347 1563 347 1633 l 347 521 q 397 397 347 449 q 521 347 449 347 l 521 1563 q 571 1685 521 1634 q 694 1736 621 1736 q 817 1685 766 1736 q 868 1563 868 1634 l 868 347 q 990 397 939 347 q 1042 521 1042 449 l 1042 1563 q 1092 1685 1042 1633 q 1215 1736 1143 1736 q 1337 1685 1286 1736 q 1389 1563 1389 1633 l 1389 347 q 1287 102 1389 202 q 1042 0 1185 0 q 796 100 897 0 q 694 347 694 202 q 593 102 694 202 q 347 0 491 0 l 347 0 z "},"x":{"ha":1476,"x_min":0,"x_max":1389,"o":"m 174 0 q 50 50 102 0 q 0 174 0 102 l 0 347 q 102 593 0 491 q 347 694 202 694 q 469 745 418 694 q 521 868 521 796 l 521 1042 l 347 1042 q 100 1143 202 1042 q 0 1389 0 1244 l 0 1563 q 50 1685 0 1633 q 174 1736 102 1736 q 296 1685 244 1736 q 347 1563 347 1633 l 347 1389 q 593 1286 491 1389 q 694 1042 694 1185 q 796 1287 694 1185 q 1042 1389 897 1389 l 1042 1563 q 1092 1685 1042 1633 q 1215 1736 1143 1736 q 1337 1685 1286 1736 q 1389 1563 1389 1633 l 1389 1389 q 1286 1142 1389 1244 q 1042 1042 1185 1042 l 868 1042 l 868 868 q 918 745 868 796 q 1042 694 970 694 q 1287 591 1185 694 q 1389 347 1389 491 l 1389 174 q 1337 50 1389 102 q 1215 0 1286 0 q 1092 50 1143 0 q 1042 174 1042 102 l 1042 347 q 795 449 897 347 q 694 694 694 549 q 591 448 694 549 q 347 347 491 347 l 347 174 q 296 50 347 102 q 174 0 244 0 l 174 0 z "},"y":{"ha":1476,"x_min":0,"x_max":1389,"o":"m 694 0 q 571 50 621 0 q 521 174 521 100 l 521 694 l 347 694 q 100 796 202 694 q 0 1042 0 897 l 0 1563 q 50 1685 0 1633 q 174 1736 102 1736 q 296 1685 244 1736 q 347 1563 347 1633 l 347 1215 q 397 1092 347 1143 q 521 1042 449 1042 l 868 1042 q 990 1092 939 1042 q 1042 1215 1042 1143 l 1042 1563 q 1092 1685 1042 1633 q 1215 1736 1143 1736 q 1337 1685 1286 1736 q 1389 1563 1389 1633 l 1389 1042 q 1286 795 1389 897 q 1042 694 1185 694 l 868 694 l 868 174 q 817 50 868 100 q 694 0 766 0 l 694 0 z "},"z":{"ha":1476,"x_min":0,"x_max":1389,"o":"m 347 0 q 102 100 202 0 q 0 347 0 202 l 0 694 q 100 939 0 838 q 347 1042 202 1042 l 868 1042 q 990 1092 939 1042 q 1042 1215 1042 1143 q 990 1337 1042 1286 q 868 1389 939 1389 l 174 1389 q 50 1439 102 1389 q 0 1563 0 1491 q 50 1685 0 1633 q 174 1736 102 1736 l 1042 1736 q 1286 1634 1185 1736 q 1389 1389 1389 1533 l 1389 1042 q 1287 796 1389 897 q 1042 694 1185 694 l 521 694 q 397 643 449 694 q 347 521 347 591 q 397 397 347 449 q 521 347 449 347 l 1215 347 q 1337 296 1286 347 q 1389 174 1389 244 q 1337 50 1389 102 q 1215 0 1286 0 l 347 0 z "},"‘":{"ha":1476,"x_min":347,"x_max":1042,"o":"m 694 1042 q 448 1143 549 1042 q 347 1389 347 1244 l 347 1736 q 449 1982 347 1880 q 694 2083 549 2083 l 868 2083 q 990 2032 939 2083 q 1042 1910 1042 1980 q 990 1786 1042 1838 q 868 1736 939 1736 l 694 1736 q 940 1633 838 1736 q 1042 1389 1042 1533 q 939 1142 1042 1244 q 694 1042 838 1042 l 694 1042 z "},"’":{"ha":1476,"x_min":347,"x_max":1042,"o":"m 521 1042 q 397 1092 449 1042 q 347 1215 347 1143 q 397 1337 347 1286 q 521 1389 449 1389 l 694 1389 q 448 1491 549 1389 q 347 1736 347 1591 q 449 1982 347 1880 q 694 2083 549 2083 q 940 1980 838 2083 q 1042 1736 1042 1880 l 1042 1389 q 939 1142 1042 1244 q 694 1042 838 1042 l 521 1042 z "},"“":{"ha":1476,"x_min":0,"x_max":1389,"o":"m 347 1042 q 100 1143 202 1042 q 0 1389 0 1244 l 0 1736 q 102 1982 0 1880 q 347 2083 202 2083 l 521 2083 q 643 2032 591 2083 q 694 1910 694 1980 q 643 1786 694 1838 q 521 1736 591 1736 l 347 1736 q 593 1633 491 1736 q 694 1389 694 1533 q 591 1142 694 1244 q 347 1042 491 1042 l 347 1042 m 1042 1042 q 795 1143 897 1042 q 694 1389 694 1244 l 694 1736 q 796 1982 694 1880 q 1042 2083 897 2083 l 1215 2083 q 1337 2032 1286 2083 q 1389 1910 1389 1980 q 1337 1786 1389 1838 q 1215 1736 1286 1736 l 1042 1736 q 1287 1633 1185 1736 q 1389 1389 1389 1533 q 1286 1142 1389 1244 q 1042 1042 1185 1042 l 1042 1042 z "},"”":{"ha":1476,"x_min":0,"x_max":1389,"o":"m 174 1042 q 50 1092 102 1042 q 0 1215 0 1143 q 50 1337 0 1286 q 174 1389 102 1389 l 347 1389 q 100 1491 202 1389 q 0 1736 0 1591 q 102 1982 0 1880 q 347 2083 202 2083 q 593 1980 491 2083 q 694 1736 694 1880 l 694 1389 q 591 1142 694 1244 q 347 1042 491 1042 l 174 1042 m 868 1042 q 745 1092 796 1042 q 694 1215 694 1143 q 745 1337 694 1286 q 868 1389 796 1389 l 1042 1389 q 795 1491 897 1389 q 694 1736 694 1591 q 796 1982 694 1880 q 1042 2083 897 2083 q 1287 1980 1185 2083 q 1389 1736 1389 1880 l 1389 1389 q 1286 1142 1389 1244 q 1042 1042 1185 1042 l 868 1042 z "}}}
